<svg width="192" height="192" viewBox="0 0 192 192" fill="none" xmlns="http://www.w3.org/2000/svg">
  <defs>
    <linearGradient id="accent-site" x1="35" y1="24" x2="157" y2="166" gradientUnits="userSpaceOnUse">
      <stop stop-color="#FF4FD8"/>
      <stop offset="0.52" stop-color="#7A5CFF"/>
      <stop offset="1" stop-color="#18DBFF"/>
    </linearGradient>
    <radialGradient id="glow-site" cx="0" cy="0" r="1" gradientUnits="userSpaceOnUse" gradientTransform="translate(142 45) rotate(133.363) scale(72)">
      <stop stop-color="#18DBFF" stop-opacity="0.4"/>
      <stop offset="1" stop-color="#18DBFF" stop-opacity="0"/>
    </radialGradient>
  </defs>
  <rect width="192" height="192" rx="52" fill="#05070D"/>
  <rect x="3.5" y="3.5" width="185" height="185" rx="48.5" stroke="white" stroke-opacity="0.12"/>
  <circle cx="142" cy="45" r="50" fill="url(#glow-site)"/>
  <path d="M123 10H182V69C160.3 65.2 135.4 45.4 123 10Z" fill="url(#accent-site)"/>
  <rect x="26" y="26" width="140" height="140" rx="40" fill="#0E1320"/>
  <rect x="28" y="28" width="136" height="136" rx="38" stroke="white" stroke-opacity="0.07"/>
  <text x="47" y="124" fill="#F8FBFF" font-family="Arial, Helvetica, sans-serif" font-size="88" font-weight="700" letter-spacing="-2">@</text>
  <rect x="104" y="65" width="39" height="12" rx="6" fill="#18DBFF"/>
  <rect x="104" y="89" width="31" height="12" rx="6" fill="#7A5CFF"/>
  <rect x="104" y="113" width="50" height="12" rx="6" fill="#FF4FD8"/>
  <circle cx="149" cy="114" r="10" fill="#FFD24A"/>
</svg>
