<svg width="40" height="40" viewBox="0 0 40 40" fill="none" xmlns="http://www.w3.org/2000/svg">
  <defs>
    <linearGradient id="accent" x1="7" y1="6" x2="33" y2="34" gradientUnits="userSpaceOnUse">
      <stop stop-color="#FF4FD8"/>
      <stop offset="0.52" stop-color="#7A5CFF"/>
      <stop offset="1" stop-color="#18DBFF"/>
    </linearGradient>
    <radialGradient id="glow" cx="0" cy="0" r="1" gradientUnits="userSpaceOnUse" gradientTransform="translate(30 9) rotate(133.363) scale(17.4957)">
      <stop stop-color="#18DBFF" stop-opacity="0.42"/>
      <stop offset="1" stop-color="#18DBFF" stop-opacity="0"/>
    </radialGradient>
  </defs>
  <rect width="40" height="40" rx="12" fill="#05070D"/>
  <rect x="0.75" y="0.75" width="38.5" height="38.5" rx="11.25" stroke="white" stroke-opacity="0.12"/>
  <circle cx="29.5" cy="9.5" r="10.5" fill="url(#glow)"/>
  <path d="M25.5 2H38V14.5C33.4 13.7 28.1 9.5 25.5 2Z" fill="url(#accent)"/>
  <rect x="5.5" y="5.5" width="29" height="29" rx="10" fill="#0E1320"/>
  <rect x="6" y="6" width="28" height="28" rx="9.5" stroke="white" stroke-opacity="0.06"/>
  <text x="10.1" y="25.9" fill="#F8FBFF" font-family="Arial, Helvetica, sans-serif" font-size="18.4" font-weight="700" letter-spacing="-0.5">@</text>
  <rect x="22" y="13.8" width="8.2" height="2.6" rx="1.3" fill="#18DBFF"/>
  <rect x="22" y="18.9" width="6.5" height="2.6" rx="1.3" fill="#7A5CFF"/>
  <rect x="22" y="24" width="10.4" height="2.6" rx="1.3" fill="#FF4FD8"/>
  <circle cx="31.3" cy="24.4" r="2.1" fill="#FFD24A"/>
</svg>
